         <svg 
  width="21" 
  height="24" 
  viewBox="0 0 21 24" 
  version="1.1" 
  xmlns="http://www.w3.org/2000/svg" 
  xmlnsXlink="http://www.w3.org/1999/xlink"
>
  <g 
    stroke="none" 
    strokeWidth="1" 
    fill="none" 
    fillRule="evenodd" 
    strokeLinecap="round" 
    strokeLinejoin="round"
  >
    <g transform="translate(-61.000000, -585.000000)" stroke="#65513E">
      <g transform="translate(62.497000, 585.500000)">
        <path d="M5.003,9 L5.003,4.5 C5.003,2.01471863 7.01771863,4.4408921e-16 9.503,0 C11.9882814,-4.4408921e-16 14.003,2.01471863 14.003,4.5 L14.003,9"></path>
        <path d="M18.969,20 L18.069,7 C18.0311276,6.43739419 17.563879,6.00030475 17,6 L2.003,6 C1.439121,6.00030475 0.971872393,6.43739419 0.934,7 L0.034,20 C0.0113333333,20.3333333 7.62057084e-13,20.6666667 7.62057084e-13,21 C7.62057084e-13,22.1045695 0.8954305,23 2,23 L17,23 C18.1045695,23 19,22.1045695 19,21 C19.002,20.6666667 18.9916667,20.3333333 18.969,20 Z"></path>
      </g>
    </g>
  </g>
</svg>